<svg width="72" height="12" viewBox="0 0 72 12" fill="none" xmlns="http://www.w3.org/2000/svg">
  <g clip-path="url(#clip0_52_1000)">
    <path
      d="M16.3074 3.50364V5.60565C16.1383 5.57343 15.8484 5.56538 15.6631 5.56538C14.1893 5.56538 13.3437 6.54793 13.3437 7.94927V11.0097H11.1289V3.57612H13.3437V5.58954C13.5853 4.38954 14.3021 3.43115 15.647 3.43115C16.992 3.43115 16.1222 3.44726 16.3074 3.50364Z"
      fill="#71717A"
    />
    <path
      d="M24.1203 8.14232H18.8371C19.1351 8.93964 19.876 9.34232 20.8666 9.34232C21.8572 9.34232 22.1069 9.1893 22.6546 8.77051L23.6532 9.81749C23.0411 10.5906 21.9781 11.1463 20.625 11.1463C18.5713 11.1463 16.7109 9.74501 16.7109 7.30474C16.7109 4.86447 18.5794 3.43896 20.4962 3.43896C22.413 3.43896 24.5955 4.75172 24.1203 8.15037V8.14232ZM18.7968 6.55574H22.1794C22.0264 5.70205 21.2693 5.28326 20.5203 5.28326C19.7713 5.28326 19.0385 5.66984 18.7968 6.55574Z"
      fill="#71717A"
    />
    <path
      d="M24.8125 7.28887C24.8125 4.70364 26.6729 3.43115 28.3561 3.43115C30.0393 3.43115 30.442 4.14793 30.5548 4.4137H30.595V3.56807H32.8098V10.9936H30.595V10.1479H30.5548C30.442 10.4218 29.6689 11.1305 28.3561 11.1305C27.0434 11.1305 24.8125 9.858 24.8125 7.27276V7.28887ZM30.6514 7.28887C30.6514 6.07276 29.7816 5.40431 28.8071 5.40431C27.8326 5.40431 26.9951 6.08887 26.9951 7.28887C26.9951 8.48887 27.8648 9.17343 28.8071 9.17343C29.7494 9.17343 30.6514 8.50498 30.6514 7.28887Z"
      fill="#71717A"
    />
    <path
      d="M41.7805 0.861816V11.0014H39.5658V10.1558H39.5255C39.4127 10.4296 38.6396 11.1383 37.3268 11.1383C36.0141 11.1383 33.7832 9.86584 33.7832 7.28061C33.7832 4.69537 35.6436 3.42289 37.3268 3.42289C39.01 3.42289 39.4127 4.13967 39.5255 4.40544H39.5658V0.861816H41.7805ZM39.6221 7.28866C39.6221 6.07256 38.7523 5.4041 37.7778 5.4041C36.8033 5.4041 35.9658 6.08866 35.9658 7.28866C35.9658 8.48866 36.8356 9.17323 37.7778 9.17323C38.7201 9.17323 39.6221 8.50477 39.6221 7.28866Z"
      fill="#71717A"
    />
    <path
      d="M42.748 7.28887C42.748 4.70364 44.6084 3.43115 46.2917 3.43115C47.9749 3.43115 48.3776 4.14793 48.4903 4.4137H48.5306V3.56807H50.7454V10.9936H48.5306V10.1479H48.4903C48.3776 10.4218 47.6044 11.1305 46.2917 11.1305C44.9789 11.1305 42.748 9.858 42.748 7.27276V7.28887ZM48.587 7.28887C48.587 6.07276 47.7172 5.40431 46.7427 5.40431C45.7682 5.40431 44.9306 6.08887 44.9306 7.28887C44.9306 8.48887 45.8004 9.17343 46.7427 9.17343C47.685 9.17343 48.587 8.50498 48.587 7.28887Z"
      fill="#71717A"
    />
    <path
      d="M60.0793 7.28866C60.0793 9.8739 58.2189 11.1464 56.5357 11.1464C54.8525 11.1464 54.4498 10.4296 54.3371 10.1638H54.2968V11.0095H52.082V0.861816H54.2968V4.42155H54.3371C54.4498 4.14772 55.223 3.439 56.5357 3.439C57.8485 3.439 60.0793 4.71148 60.0793 7.29672V7.28866ZM57.9048 7.28866C57.9048 6.08866 57.0189 5.4041 56.0767 5.4041C55.1344 5.4041 54.2404 6.07256 54.2404 7.28866C54.2404 8.50477 55.1102 9.17323 56.0767 9.17323C57.0431 9.17323 57.9048 8.48866 57.9048 7.28866Z"
      fill="#71717A"
    />
    <path d="M61.0449 0.861816H63.2597V11.0014H61.0449V0.861816Z" fill="#71717A" />
    <path
      d="M71.6516 8.14232H66.3684C66.6663 8.93964 67.4073 9.34232 68.3979 9.34232C69.3885 9.34232 69.6382 9.1893 70.1858 8.77051L71.1845 9.81749C70.5724 10.5906 69.5093 11.1463 68.1563 11.1463C66.1026 11.1463 64.2422 9.74501 64.2422 7.30474C64.2422 4.86447 66.1106 3.43896 68.0274 3.43896C69.9442 3.43896 72.1268 4.75172 71.6516 8.15037V8.14232ZM66.3281 6.55574H69.7106C69.5576 5.70205 68.8006 5.28326 68.0516 5.28326C67.3026 5.28326 66.5697 5.66984 66.3281 6.55574Z"
      fill="#71717A"
    />
    <path d="M6.93456 1.12744V9.4469L0.25 11.9999V3.68046L6.93456 1.12744Z" fill="#71717A" />
  </g>
  <defs>
    <clipPath id="clip0_52_1000">
      <rect width="71.4362" height="12" fill="white" transform="translate(0.28125)" />
    </clipPath>
  </defs>
</svg>
