<svg width="293" height="177" viewBox="0 0 293 177" fill="none" xmlns="http://www.w3.org/2000/svg">
  <rect x="47" y="53" width="79" height="34" rx="4" fill="#ECF2FD" />
  <path
    d="M57.119 72.374C57.3963 72.9113 57.7213 73.3187 58.094 73.596C58.4753 73.8733 58.8783 74.012 59.303 74.012C59.9097 74.0207 60.382 73.8907 60.72 73.622C61.058 73.3447 61.227 72.972 61.227 72.504C61.227 72.2007 61.136 71.945 60.954 71.737C60.7807 71.529 60.5597 71.3643 60.291 71.243C60.031 71.113 59.667 70.9613 59.199 70.788C58.601 70.5713 58.1157 70.3633 57.743 70.164C57.3703 69.9647 57.054 69.683 56.794 69.319C56.534 68.955 56.404 68.487 56.404 67.915C56.404 67.395 56.534 66.9487 56.794 66.576C57.0627 66.1947 57.4267 65.9043 57.886 65.705C58.354 65.497 58.887 65.3973 59.485 65.406C59.9097 65.4147 60.3127 65.5013 60.694 65.666C61.0753 65.822 61.4177 66.0647 61.721 66.394C62.0243 66.7147 62.2627 67.1177 62.436 67.603L61.201 68.045C61.0363 67.5683 60.8023 67.213 60.499 66.979C60.1957 66.7363 59.8533 66.6107 59.472 66.602C59.134 66.602 58.835 66.6583 58.575 66.771C58.3237 66.875 58.1287 67.0267 57.99 67.226C57.8513 67.4167 57.782 67.6463 57.782 67.915C57.782 68.2183 57.8687 68.474 58.042 68.682C58.224 68.89 58.4493 69.0633 58.718 69.202C58.9953 69.332 59.3637 69.4837 59.823 69.657C60.421 69.891 60.902 70.1077 61.266 70.307C61.63 70.5063 61.942 70.788 62.202 71.152C62.462 71.5073 62.592 71.9623 62.592 72.517C62.592 73.0543 62.4577 73.5267 62.189 73.934C61.9203 74.3413 61.5347 74.6577 61.032 74.883C60.538 75.1083 59.9573 75.2167 59.29 75.208C58.5967 75.1993 57.9727 75.0087 57.418 74.636C56.8633 74.2547 56.3823 73.713 55.975 73.011L57.119 72.374ZM68.5901 71.724C68.5901 71.2127 68.4774 70.8053 68.2521 70.502C68.0267 70.1987 67.7277 70.047 67.3551 70.047C67.0777 70.047 66.8221 70.1293 66.5881 70.294C66.3541 70.45 66.1677 70.6667 66.0291 70.944C65.8991 71.2213 65.8341 71.5247 65.8341 71.854V75H64.4561V65.822H65.8341V69.8L65.7821 69.709C65.9727 69.449 66.2111 69.241 66.4971 69.085C66.7917 68.929 67.0777 68.851 67.3551 68.851C67.8577 68.851 68.3084 68.968 68.7071 69.202C69.1057 69.436 69.4177 69.761 69.6431 70.177C69.8684 70.5843 69.9811 71.048 69.9811 71.568V75H68.5901V71.724ZM73.1707 68.903V75.104H71.7927V68.903H73.1707ZM72.4817 65.809C72.7071 65.809 72.8934 65.8827 73.0407 66.03C73.1881 66.1773 73.2617 66.3637 73.2617 66.589C73.2617 66.8143 73.1881 67.0007 73.0407 67.148C72.8934 67.2953 72.7071 67.369 72.4817 67.369C72.2564 67.369 72.0701 67.2953 71.9227 67.148C71.7754 67.0007 71.7017 66.8143 71.7017 66.589C71.7017 66.3637 71.7754 66.1773 71.9227 66.03C72.0701 65.8827 72.2564 65.809 72.4817 65.809ZM75.7281 75.117V67.59C75.7281 67.018 75.9058 66.537 76.2611 66.147C76.6251 65.7483 77.0931 65.5317 77.6651 65.497C77.9338 65.4797 78.2111 65.5187 78.4971 65.614C78.7918 65.7007 79.0171 65.822 79.1731 65.978L78.4711 66.992C78.3324 66.8707 78.2111 66.7927 78.1071 66.758C78.0031 66.7147 77.8948 66.7017 77.7821 66.719C77.5828 66.7363 77.4181 66.8273 77.2881 66.992C77.1668 67.148 77.1061 67.3473 77.1061 67.59V75.117H75.7281ZM74.6361 68.89H78.8481V70.112H74.6361V68.89ZM81.2134 66.732H82.5914V75.117H81.2134V66.732ZM80.0434 68.903H84.0604V70.099H80.0434V68.903Z"
    fill="#3472EB"
  />
  <rect x="174" y="91" width="34" height="34" rx="4" fill="#ECF2FD" />
  <path
    d="M195.003 105C195.475 105 195.762 105.521 195.51 105.92L191.553 112.195C191.317 112.569 190.773 112.569 190.538 112.195L186.58 105.92C186.328 105.521 186.615 105 187.088 105H195.003Z"
    fill="#3472EB"
  />
  <rect x="174" y="53" width="34" height="34" rx="4" fill="#ECF2FD" />
  <path
    d="M187.087 73C186.615 73 186.328 72.4795 186.58 72.0799L190.537 65.8047C190.773 65.4315 191.317 65.4315 191.552 65.8047L195.51 72.0799C195.762 72.4795 195.474 73 195.002 73H187.087Z"
    fill="#3472EB"
  />
  <rect x="136" y="91" width="34" height="34" rx="4" fill="#ECF2FD" />
  <path
    d="M156.592 111.923C156.592 112.393 156.076 112.68 155.676 112.433L149.343 108.51C148.964 108.275 148.964 107.725 149.343 107.49L155.676 103.567C156.076 103.32 156.592 103.607 156.592 104.077V111.923Z"
    fill="#3472EB"
  />
  <rect x="212" y="91" width="34" height="34" rx="4" fill="#ECF2FD" />
  <path
    d="M227.223 111.923C227.223 112.393 227.739 112.68 228.139 112.433L234.471 108.51C234.85 108.275 234.85 107.725 234.471 107.49L228.139 103.567C227.739 103.32 227.223 103.607 227.223 104.077V111.923Z"
    fill="#3472EB"
  />
  <rect x="92" y="91" width="34" height="34" rx="4" fill="#ECF2FD" />
  <path
    d="M109.659 113.104H108.19L107.228 110.491H103.289L102.288 113.104H100.819L104.446 103.51H106.097L109.659 113.104ZM106.773 109.295L105.278 105.252L103.731 109.295H106.773ZM112.124 103.822V113.104H110.746V103.822H112.124ZM114.257 104.732H115.635V113.117H114.257V104.732ZM113.087 106.903H117.104V108.099H113.087V106.903Z"
    fill="#3472EB"
  />
  <rect x="47" y="91" width="41" height="34" rx="4" fill="#ECF2FD" />
  <path
    d="M62.0484 113.208C61.1298 113.208 60.3108 113 59.5914 112.584C58.8808 112.168 58.3218 111.587 57.9144 110.842C57.5158 110.097 57.3164 109.252 57.3164 108.307C57.3164 107.354 57.5158 106.509 57.9144 105.772C58.3218 105.027 58.8808 104.446 59.5914 104.03C60.3108 103.614 61.1298 103.406 62.0484 103.406C62.6898 103.406 63.2964 103.532 63.8684 103.783C64.4404 104.034 64.9474 104.385 65.3894 104.836L64.4794 105.733C64.1848 105.386 63.8208 105.113 63.3874 104.914C62.9628 104.715 62.5121 104.615 62.0354 104.615C61.3768 104.615 60.7961 104.771 60.2934 105.083C59.7908 105.386 59.4008 105.82 59.1234 106.383C58.8461 106.938 58.7074 107.579 58.7074 108.307C58.7074 109.035 58.8461 109.681 59.1234 110.244C59.4008 110.799 59.7908 111.232 60.2934 111.544C60.7961 111.847 61.3768 111.999 62.0354 111.999C62.5208 111.999 62.9671 111.899 63.3744 111.7C63.7818 111.501 64.1328 111.236 64.4274 110.907L65.3894 111.778C64.9388 112.237 64.4318 112.593 63.8684 112.844C63.3138 113.095 62.7071 113.217 62.0484 113.208ZM67.7443 104.732H69.1223V113.117H67.7443V104.732ZM66.5743 106.903H70.5913V108.099H66.5743V106.903ZM73.0077 108.086C73.1204 107.843 73.2851 107.631 73.5017 107.449C73.7271 107.258 73.9741 107.115 74.2427 107.02C74.5114 106.925 74.7844 106.881 75.0617 106.89V108.164C74.7064 108.147 74.3814 108.229 74.0867 108.411C73.8007 108.584 73.5754 108.818 73.4107 109.113C73.2461 109.408 73.1637 109.715 73.1637 110.036V113.117H71.7857V106.916H73.1637V108.138L73.0077 108.086ZM77.7573 103.822V113.104H76.3793V103.822H77.7573Z"
    fill="#3472EB"
  />
</svg>
