<svg width="294" height="177" viewBox="0 0 294 177" fill="none" xmlns="http://www.w3.org/2000/svg">
  <rect x="16.832" y="47" width="142" height="83" rx="7" fill="#ECF2FD" stroke="#CCDDFF" stroke-width="2" />
  <path
    opacity="0.6"
    d="M28.832 61.5C28.832 59.567 30.399 58 32.332 58H145.332C147.265 58 148.832 59.567 148.832 61.5C148.832 63.433 147.265 65 145.332 65H32.332C30.399 65 28.832 63.433 28.832 61.5Z"
    fill="#B2D5FF"
  />
  <path
    opacity="0.6"
    d="M28.832 74.5C28.832 72.567 30.399 71 32.332 71H116.332C118.265 71 119.832 72.567 119.832 74.5C119.832 76.433 118.265 78 116.332 78H32.332C30.399 78 28.832 76.433 28.832 74.5Z"
    fill="#B2D5FF"
  />
  <path
    opacity="0.6"
    d="M28.832 87.5C28.832 85.567 30.399 84 32.332 84H92.332C94.265 84 95.832 85.567 95.832 87.5C95.832 89.433 94.265 91 92.332 91H32.332C30.399 91 28.832 89.433 28.832 87.5Z"
    fill="#B2D5FF"
  />
  <rect x="165.332" y="74" width="81" height="56" rx="5" fill="#ECF2FD" stroke="#CCDDFF" stroke-width="2" />
  <path
    opacity="0.6"
    d="M171.332 83C171.332 81.8954 172.227 81 173.332 81H233.332C234.437 81 235.332 81.8954 235.332 83C235.332 84.1046 234.437 85 233.332 85H173.332C172.227 85 171.332 84.1046 171.332 83Z"
    fill="#B2D5FF"
  />
  <path
    opacity="0.6"
    d="M171.332 92.5C171.332 91.1193 172.451 90 173.832 90H217.832C219.213 90 220.332 91.1193 220.332 92.5C220.332 93.8807 219.213 95 217.832 95H173.832C172.451 95 171.332 93.8807 171.332 92.5Z"
    fill="#B2D5FF"
  />
  <path
    opacity="0.6"
    d="M171.332 102C171.332 100.895 172.227 100 173.332 100H205.332C206.437 100 207.332 100.895 207.332 102C207.332 103.105 206.437 104 205.332 104H173.332C172.227 104 171.332 103.105 171.332 102Z"
    fill="#B2D5FF"
  />
  <rect x="252.832" y="89" width="25" height="41" rx="3" fill="#ECF2FD" stroke="#CCDDFF" stroke-width="2" />
  <path
    opacity="0.6"
    d="M256.832 95.5C256.832 94.6716 257.504 94 258.332 94H273.332C274.16 94 274.832 94.6716 274.832 95.5C274.832 96.3284 274.16 97 273.332 97H258.332C257.504 97 256.832 96.3284 256.832 95.5Z"
    fill="#B2D5FF"
  />
  <path
    opacity="0.6"
    d="M256.832 101.5C256.832 100.672 257.504 100 258.332 100H268.332C269.16 100 269.832 100.672 269.832 101.5C269.832 102.328 269.16 103 268.332 103H258.332C257.504 103 256.832 102.328 256.832 101.5Z"
    fill="#B2D5FF"
  />
  <path
    opacity="0.6"
    d="M256.832 107.5C256.832 106.672 257.504 106 258.332 106H264.332C265.16 106 265.832 106.672 265.832 107.5C265.832 108.328 265.16 109 264.332 109H258.332C257.504 109 256.832 108.328 256.832 107.5Z"
    fill="#B2D5FF"
  />
</svg>
